# xmcd
#
# Track frame offsets: 
#        150
#        11712
#        26262
#        39337
#        52450
#        68875
#        81025
#        94787
#        107162
#        118662
#
# Disc length: 1824 seconds
#
# Revision: 0
# Processed by: cddbd v1.4PL0 Copyright (c) Steve Scherf et al.
# Submitted via: ExactAudioCopy v0.90b4
#
DISCID=7f071e0a
DTITLE=Various Artist - Country Super Ladies
DYEAR=1900
DGENRE=Country
TTITLE0=Walking After Midnight
TTITLE1=Don't Tuch Me
TTITLE2=Rose Garden
TTITLE3=Delta Dawn
TTITLE4=Silver Bird
TTITLE5=Stand by Your Man
TTITLE6=Teddy Bear Song
TTITLE7=Midnight Oil
TTITLE8=(Til) I Kissed You
TTITLE9=Half the Way
EXTD=
EXTT0=
EXTT1=
EXTT2=
EXTT3=
EXTT4=
EXTT5=
EXTT6=
EXTT7=
EXTT8=
EXTT9=
PLAYORDER=
